SplineFontDB: 3.0
FontName: Old_Hebrew_4Q101
FullName: Old_Hebrew_4Q101
FamilyName: Old_Hebrew_4Q101
Weight: Book
Copyright: Copyright (c) 2016, Perrot 
Version: 001.000
ItalicAngle: 0
UnderlinePosition: -200
UnderlineWidth: 50
Ascent: 800
Descent: 200
InvalidEm: 0
sfntRevision: 0x00010000
LayerCount: 2
Layer: 0 1 "Back" 1
Layer: 1 1 "Fore" 0
XUID: [1021 593 -2124264676 16681014]
StyleMap: 0x0000
FSType: 0
OS2Version: 4
OS2_WeightWidthSlopeOnly: 0
OS2_UseTypoMetrics: 1
CreationTime: 1475501020
ModificationTime: 1532413485
PfmFamily: 17
TTFWeight: 400
TTFWidth: 5
LineGap: 90
VLineGap: 0
Panose: 2 0 5 9 0 0 0 0 0 0
OS2TypoAscent: 800
OS2TypoAOffset: 0
OS2TypoDescent: -200
OS2TypoDOffset: 0
OS2TypoLinegap: 90
OS2WinAscent: 874
OS2WinAOffset: 0
OS2WinDescent: 66
OS2WinDOffset: 0
HheadAscent: 874
HheadAOffset: 0
HheadDescent: -66
HheadDOffset: 0
OS2SubXSize: 650
OS2SubYSize: 700
OS2SubXOff: 0
OS2SubYOff: 140
OS2SupXSize: 650
OS2SupYSize: 700
OS2SupXOff: 0
OS2SupYOff: 480
OS2StrikeYSize: 49
OS2StrikeYPos: 258
OS2Vendor: 'PfEd'
OS2CodePages: 00000020.00000000
OS2UnicodeRanges: 00000800.00000000.00000000.00000000
MarkAttachClasses: 1
DEI: 91125
ShortTable: cvt  2
  33
  633
EndShort
ShortTable: maxp 16
  1
  0
  22
  184
  3
  0
  0
  2
  0
  1
  1
  0
  64
  46
  0
  0
EndShort
LangName: 1033 "" "" "Regular"
GaspTable: 1 65535 2 0
Encoding: UnicodeBmp
UnicodeInterp: none
NameList: AGL For New Fonts
DisplaySize: -48
AntiAlias: 1
FitToEm: 0
WinInfo: 37 37 14
BeginPrivate: 0
EndPrivate
BeginChars: 65539 22

StartChar: .notdef
Encoding: 65536 -1 0
Width: 1000
Flags: W
LayerCount: 2
Fore
SplineSet
33 0 m 1,0,-1
 33 666 l 1,1,-1
 298 666 l 1,2,-1
 298 0 l 1,3,-1
 33 0 l 1,0,-1
66 33 m 1,4,-1
 265 33 l 1,5,-1
 265 633 l 1,6,-1
 66 633 l 1,7,-1
 66 33 l 1,4,-1
EndSplineSet
EndChar

StartChar: uni05D0
Encoding: 1488 1488 3
Width: 1000
GlyphClass: 2
Flags: W
LayerCount: 2
Fore
SplineSet
380 405 m 0,0,1
 383 409 383 409 387.5 417 c 128,-1,2
 392 425 392 425 394.5 429 c 128,-1,3
 397 433 397 433 401.5 438.5 c 128,-1,4
 406 444 406 444 411 448 c 128,-1,5
 416 452 416 452 422 455 c 0,6,7
 433 461 433 461 443 462.5 c 128,-1,8
 453 464 453 464 466.5 464 c 128,-1,9
 480 464 480 464 490 465 c 128,-1,10
 500 466 500 466 516.5 473.5 c 128,-1,11
 533 481 533 481 541 481 c 128,-1,12
 549 481 549 481 558 475 c 0,13,14
 569 466 569 466 569 452 c 0,15,16
 569 446 569 446 566.5 431.5 c 128,-1,17
 564 417 564 417 564 409 c 0,18,19
 564 398 564 398 555 375 c 128,-1,20
 546 352 546 352 546 345 c 0,21,22
 546 334 546 334 558 333 c 0,23,24
 571 331 571 331 595 331 c 0,25,26
 641 331 641 331 715.5 352.5 c 128,-1,27
 790 374 790 374 818 379 c 0,28,29
 834 382 834 382 880 393.5 c 128,-1,30
 926 405 926 405 957 405 c 2,31,-1
 966 405 l 2,32,33
 977 405 977 405 977 387 c 0,34,35
 977 384 977 384 976.5 379.5 c 128,-1,36
 976 375 976 375 976 373 c 128,-1,37
 976 371 976 371 975.5 367 c 128,-1,38
 975 363 975 363 975 361 c 128,-1,39
 975 359 975 359 974 355.5 c 128,-1,40
 973 352 973 352 972.5 350 c 128,-1,41
 972 348 972 348 971.5 345.5 c 128,-1,42
 971 343 971 343 969.5 341 c 128,-1,43
 968 339 968 339 966.5 337 c 128,-1,44
 965 335 965 335 963 333.5 c 128,-1,45
 961 332 961 332 958 331 c 0,46,47
 930 319 930 319 884.5 316 c 128,-1,48
 839 313 839 313 826 311 c 0,49,50
 797 306 797 306 745 298 c 128,-1,51
 693 290 693 290 656 282.5 c 128,-1,52
 619 275 619 275 576 261 c 0,53,54
 571 259 571 259 567.5 251.5 c 128,-1,55
 564 244 564 244 565 237.5 c 128,-1,56
 566 231 566 231 572 231 c 0,57,58
 600 232 600 232 628 236 c 128,-1,59
 656 240 656 240 670.5 243 c 128,-1,60
 685 246 685 246 722 256 c 128,-1,61
 759 266 759 266 772 269 c 0,62,63
 784 272 784 272 803.5 283 c 128,-1,64
 823 294 823 294 838 297 c 0,65,66
 870 303 870 303 891 303 c 0,67,68
 913 303 913 303 934 299 c 0,69,70
 950 297 950 297 958 277 c 0,71,72
 966 258 966 258 954 251 c 0,73,74
 893 216 893 216 816 195 c 0,75,76
 780 186 780 186 725.5 180.5 c 128,-1,77
 671 175 671 175 650 171 c 0,78,79
 631 167 631 167 602 157 c 0,80,81
 596 155 596 155 591.5 152.5 c 128,-1,82
 587 150 587 150 583 145.5 c 128,-1,83
 579 141 579 141 576.5 138.5 c 128,-1,84
 574 136 574 136 571 129.5 c 128,-1,85
 568 123 568 123 567 120.5 c 128,-1,86
 566 118 566 118 562.5 110 c 128,-1,87
 559 102 559 102 558 99 c 0,88,89
 555 93 555 93 555 80 c 0,90,91
 555 74 555 74 556.5 62 c 128,-1,92
 558 50 558 50 558 45 c 0,93,94
 558 29 558 29 546 21 c 0,95,96
 488 -18 488 -18 440 -18 c 0,97,98
 422 -18 422 -18 394 -11 c 0,99,100
 382 -7 382 -7 382 5 c 0,101,102
 382 11 382 11 386.5 28.5 c 128,-1,103
 391 46 391 46 391 56 c 0,104,105
 391 57 391 57 390.5 59.5 c 128,-1,106
 390 62 390 62 390 63 c 0,107,108
 388 74 388 74 385.5 93 c 128,-1,109
 383 112 383 112 381 121.5 c 128,-1,110
 379 131 379 131 373.5 145.5 c 128,-1,111
 368 160 368 160 360 173 c 0,112,113
 329 221 329 221 290 223 c 2,114,-1
 284 223 l 2,115,116
 258 223 258 223 220 204 c 128,-1,117
 182 185 182 185 158 183 c 0,118,119
 108 178 108 178 102 178 c 0,120,121
 68 178 68 178 50 201 c 0,122,123
 45 207 45 207 45 216 c 0,124,125
 45 230 45 230 60 243.5 c 128,-1,126
 75 257 75 257 94 265 c 0,127,128
 122 276 122 276 156 276 c 0,129,130
 165 276 165 276 183.5 275 c 128,-1,131
 202 274 202 274 212 274 c 0,132,133
 226 274 226 274 234 275 c 2,134,-1
 239 275 l 2,135,136
 248 275 248 275 263 272 c 128,-1,137
 278 269 278 269 285 269 c 0,138,139
 299 269 299 269 310 279 c 0,140,141
 334 300 334 300 352 345 c 128,-1,142
 370 390 370 390 380 405 c 0,0,1
EndSplineSet
EndChar

StartChar: uni05D1
Encoding: 1489 1489 4
Width: 1000
GlyphClass: 2
Flags: W
LayerCount: 2
Fore
SplineSet
764 388 m 2,0,1
 751 387 751 387 740.5 379.5 c 128,-1,2
 730 372 730 372 725 365.5 c 128,-1,3
 720 359 720 359 710 344 c 128,-1,4
 700 329 700 329 700 317 c 0,5,6
 700 307 700 307 706 302 c 0,7,8
 712 296 712 296 722 296 c 0,9,10
 735 296 735 296 752 306 c 0,11,12
 765 313 765 313 771.5 318 c 128,-1,13
 778 323 778 323 784.5 332 c 128,-1,14
 791 341 791 341 792 352 c 2,15,-1
 792 357 l 2,16,17
 792 369 792 369 784.5 378.5 c 128,-1,18
 777 388 777 388 766 388 c 2,19,-1
 764 388 l 2,0,1
494 248 m 2,20,-1
 494 253 l 2,21,22
 494 276 494 276 508 290 c 128,-1,23
 522 304 522 304 552 319.5 c 128,-1,24
 582 335 582 335 594 344 c 0,25,26
 655 389 655 389 740 430 c 0,27,28
 784 452 784 452 805 452 c 2,29,-1
 814 452 l 2,30,31
 828 451 828 451 843.5 436.5 c 128,-1,32
 859 422 859 422 868 418 c 0,33,34
 870 417 870 417 876 417 c 0,35,36
 879 417 879 417 885 418 c 128,-1,37
 891 419 891 419 894 419 c 0,38,39
 900 419 900 419 904 414 c 0,40,41
 911 404 911 404 911 393 c 0,42,43
 911 380 911 380 904 370 c 0,44,45
 899 362 899 362 881 357.5 c 128,-1,46
 863 353 863 353 858 344 c 0,47,48
 849 325 849 325 849 302 c 0,49,50
 849 299 849 299 849.5 293 c 128,-1,51
 850 287 850 287 850 285 c 0,52,53
 850 264 850 264 844 248 c 128,-1,54
 838 232 838 232 821 211.5 c 128,-1,55
 804 191 804 191 798 176 c 0,56,57
 789 152 789 152 783 116.5 c 128,-1,58
 777 81 777 81 772 64 c 0,59,60
 770 58 770 58 769 43 c 128,-1,61
 768 28 768 28 764 20.5 c 128,-1,62
 760 13 760 13 750 10 c 0,63,64
 684 -8 684 -8 618.5 -18.5 c 128,-1,65
 553 -29 553 -29 517 -32 c 128,-1,66
 481 -35 481 -35 382 -42 c 0,67,68
 371 -43 371 -43 343 -46 c 128,-1,69
 315 -49 315 -49 300 -49 c 0,70,71
 259 -49 259 -49 228 -26 c 0,72,73
 222 -22 222 -22 222 -17 c 0,74,75
 222 -13 222 -13 227.5 -9 c 128,-1,76
 233 -5 233 -5 243.5 -1 c 128,-1,77
 254 3 254 3 263 5.5 c 128,-1,78
 272 8 272 8 285 11 c 128,-1,79
 298 14 298 14 304 16 c 0,80,81
 338 26 338 26 390 33.5 c 128,-1,82
 442 41 442 41 460 44 c 0,83,84
 490 50 490 50 535 53.5 c 128,-1,85
 580 57 580 57 614.5 63.5 c 128,-1,86
 649 70 649 70 684 88 c 0,87,88
 697 94 697 94 697 112 c 0,89,90
 697 119 697 119 694.5 134.5 c 128,-1,91
 692 150 692 150 692 158 c 2,92,-1
 692 160 l 2,93,94
 692 165 692 165 695 176 c 128,-1,95
 698 187 698 187 698 192 c 0,96,97
 698 202 698 202 690 206 c 0,98,99
 677 214 677 214 661 214 c 0,100,101
 655 214 655 214 641.5 212 c 128,-1,102
 628 210 628 210 621 210 c 0,103,104
 616 210 616 210 604 212 c 0,105,106
 591 215 591 215 559 215 c 128,-1,107
 527 215 527 215 511 221.5 c 128,-1,108
 495 228 495 228 494 248 c 2,20,-1
EndSplineSet
EndChar

StartChar: uni05D2
Encoding: 1490 1490 5
Width: 1000
GlyphClass: 2
Flags: W
LayerCount: 2
Fore
SplineSet
230 244 m 0,0,1
 241 266 241 266 253 279.5 c 128,-1,2
 265 293 265 293 286 304 c 0,3,4
 303 312 303 312 332 313 c 128,-1,5
 361 314 361 314 376 320 c 0,6,7
 401 330 401 330 440 358.5 c 128,-1,8
 479 387 479 387 510 396 c 0,9,10
 522 399 522 399 533 399 c 0,11,12
 556 399 556 399 584 382 c 0,13,14
 590 378 590 378 586 369 c 128,-1,15
 582 360 582 360 574 358 c 2,16,-1
 571 358 l 2,17,18
 564 358 564 358 551.5 365.5 c 128,-1,19
 539 373 539 373 536 373 c 0,20,21
 532 373 532 373 532 368 c 2,22,-1
 532 348 l 2,23,24
 532 318 532 318 535.5 287.5 c 128,-1,25
 539 257 539 257 542.5 238 c 128,-1,26
 546 219 546 219 554 181 c 128,-1,27
 562 143 562 143 566 122 c 0,28,29
 570 102 570 102 574.5 85.5 c 128,-1,30
 579 69 579 69 586.5 47.5 c 128,-1,31
 594 26 594 26 598 12 c 0,32,33
 599 8 599 8 605.5 -1.5 c 128,-1,34
 612 -11 612 -11 612 -16 c 0,35,36
 612 -20 612 -20 610 -22 c 0,37,38
 579 -65 579 -65 561 -65 c 0,39,40
 553 -65 553 -65 548 -60 c 0,41,42
 531 -45 531 -45 519 -25.5 c 128,-1,43
 507 -6 507 -6 502.5 7.5 c 128,-1,44
 498 21 498 21 490.5 49.5 c 128,-1,45
 483 78 483 78 478 92 c 0,46,47
 469 120 469 120 464 185.5 c 128,-1,48
 459 251 459 251 436 288 c 0,49,50
 431 297 431 297 420 297 c 0,51,52
 413 297 413 297 404 292.5 c 128,-1,53
 395 288 395 288 383.5 281.5 c 128,-1,54
 372 275 372 275 366 272 c 0,55,56
 351 265 351 265 330 250 c 128,-1,57
 309 235 309 235 294 228 c 0,58,59
 264 215 264 215 255 215 c 0,60,61
 248 215 248 215 244 216 c 0,62,63
 228 220 228 220 228 236 c 0,64,65
 228 240 228 240 230 244 c 0,0,1
EndSplineSet
EndChar

StartChar: uni05D3
Encoding: 1491 1491 6
Width: 1000
GlyphClass: 2
Flags: W
LayerCount: 2
Fore
SplineSet
428 274 m 0,0,1
 422 275 422 275 412 275 c 0,2,3
 389 275 389 275 369 263.5 c 128,-1,4
 349 252 349 252 323.5 229 c 128,-1,5
 298 206 298 206 282 196 c 0,6,7
 270 188 270 188 268 179 c 0,8,9
 268 174 268 174 272 174 c 2,10,-1
 287 174 l 2,11,12
 309 174 309 174 344.5 180 c 128,-1,13
 380 186 380 186 396 188 c 0,14,15
 400 188 400 188 408.5 188.5 c 128,-1,16
 417 189 417 189 423 189.5 c 128,-1,17
 429 190 429 190 435.5 191 c 128,-1,18
 442 192 442 192 445.5 194.5 c 128,-1,19
 449 197 449 197 449 200 c 0,20,21
 449 201 449 201 447 205 c 0,22,23
 445 208 445 208 445 220 c 2,24,-1
 445 236 l 2,25,26
 445 271 445 271 428 274 c 0,0,1
202 206 m 0,27,28
 281 258 281 258 342 289.5 c 128,-1,29
 403 321 403 321 512 372 c 0,30,31
 524 378 524 378 539 378 c 0,32,33
 542 378 542 378 547.5 377.5 c 128,-1,34
 553 377 553 377 556 377 c 0,35,36
 571 377 571 377 582 382 c 0,37,38
 594 387 594 387 608 404 c 128,-1,39
 622 421 622 421 636 424 c 0,40,41
 667 431 667 431 695 431 c 0,42,43
 724 431 724 431 764 422 c 0,44,45
 769 421 769 421 773 414.5 c 128,-1,46
 777 408 777 408 777 401.5 c 128,-1,47
 777 395 777 395 772 394 c 0,48,49
 739 384 739 384 682.5 382 c 128,-1,50
 626 380 626 380 592 368 c 0,51,52
 565 360 565 360 565 331 c 0,53,54
 565 330 565 330 565.5 327.5 c 128,-1,55
 566 325 566 325 566 324 c 0,56,57
 571 282 571 282 596.5 216.5 c 128,-1,58
 622 151 622 151 626 106 c 0,59,60
 627 98 627 98 627 84 c 0,61,62
 627 37 627 37 596 14 c 0,63,64
 582 3 582 3 566 3 c 0,65,66
 544 3 544 3 518 22 c 0,67,68
 502 34 502 34 493.5 63.5 c 128,-1,69
 485 93 485 93 480 102 c 0,70,71
 478 106 478 106 475 112.5 c 128,-1,72
 472 119 472 119 470 123 c 128,-1,73
 468 127 468 127 464 130.5 c 128,-1,74
 460 134 460 134 454 134 c 0,75,76
 452 134 452 134 448 134.5 c 128,-1,77
 444 135 444 135 442 135 c 0,78,79
 422 135 422 135 391.5 125.5 c 128,-1,80
 361 116 361 116 344 114 c 0,81,82
 232 102 232 102 203 102 c 2,83,-1
 190 102 l 2,84,85
 183 102 183 102 165.5 100 c 128,-1,86
 148 98 148 98 140 98 c 0,87,88
 116 98 116 98 116 114 c 2,89,-1
 116 116 l 2,90,91
 118 130 118 130 122.5 140.5 c 128,-1,92
 127 151 127 151 138.5 161.5 c 128,-1,93
 150 172 150 172 154.5 176 c 128,-1,94
 159 180 159 180 179 192 c 128,-1,95
 199 204 199 204 202 206 c 0,27,28
EndSplineSet
EndChar

StartChar: uni05D4
Encoding: 1492 1492 7
Width: 1000
GlyphClass: 2
Flags: W
LayerCount: 2
Fore
SplineSet
413 202 m 0,0,1
 400 197 400 197 390.5 191.5 c 128,-1,2
 381 186 381 186 367 173.5 c 128,-1,3
 353 161 353 161 348 157 c 0,4,5
 342 152 342 152 327.5 146 c 128,-1,6
 313 140 313 140 304 134.5 c 128,-1,7
 295 129 295 129 295 123 c 0,8,9
 295 119 295 119 299 115 c 0,10,11
 314 99 314 99 336 99 c 0,12,13
 338 99 338 99 393 110 c 0,14,15
 428 117 428 117 440.5 120 c 128,-1,16
 453 123 453 123 475 133.5 c 128,-1,17
 497 144 497 144 515 160 c 0,18,19
 522 166 522 166 522 177 c 0,20,21
 522 201 522 201 502 209 c 0,22,23
 489 215 489 215 470 215 c 0,24,25
 452 215 452 215 413 202 c 0,0,1
64 216 m 0,26,27
 102 240 102 240 141.5 260 c 128,-1,28
 181 280 181 280 207 291 c 128,-1,29
 233 302 233 302 282 322.5 c 128,-1,30
 331 343 331 343 360 356 c 0,31,32
 495 415 495 415 622 460 c 0,33,34
 633 464 633 464 654 472 c 128,-1,35
 675 480 675 480 685 483.5 c 128,-1,36
 695 487 695 487 712.5 490.5 c 128,-1,37
 730 494 730 494 748 494 c 0,38,39
 768 494 768 494 780 462 c 0,40,41
 783 456 783 456 783 449 c 0,42,43
 783 436 783 436 772 428 c 0,44,45
 766 423 766 423 759 420.5 c 128,-1,46
 752 418 752 418 748 417.5 c 128,-1,47
 744 417 744 417 734.5 416.5 c 128,-1,48
 725 416 725 416 720 416 c 2,49,-1
 715 416 l 2,50,51
 708 416 708 416 696 418.5 c 128,-1,52
 684 421 684 421 678 421 c 128,-1,53
 672 421 672 421 668 420 c 128,-1,54
 664 419 664 419 653.5 416.5 c 128,-1,55
 643 414 643 414 638 412 c 128,-1,56
 633 410 633 410 626.5 407 c 128,-1,57
 620 404 620 404 617 399 c 128,-1,58
 614 394 614 394 614 387 c 2,59,-1
 614 386 l 2,60,61
 617 324 617 324 647.5 238.5 c 128,-1,62
 678 153 678 153 686 110 c 0,63,64
 693 69 693 69 693 37 c 0,65,66
 693 13 693 13 690 -20 c 0,67,68
 689 -28 689 -28 683.5 -34.5 c 128,-1,69
 678 -41 678 -41 672 -38 c 0,70,71
 656 -30 656 -30 644 -21 c 128,-1,72
 632 -12 632 -12 616 3.5 c 128,-1,73
 600 19 600 19 592 26 c 0,74,75
 586 31 586 31 569.5 56 c 128,-1,76
 553 81 553 81 534 82 c 2,77,-1
 522 82 l 2,78,79
 467 82 467 82 386.5 60.5 c 128,-1,80
 306 39 306 39 264 34 c 0,81,82
 218 30 218 30 203 30 c 0,83,84
 172 30 172 30 140 38 c 0,85,86
 124 41 124 41 124 60 c 0,87,88
 124 64 124 64 126 70 c 0,89,90
 131 79 131 79 137.5 86 c 128,-1,91
 144 93 144 93 149 96.5 c 128,-1,92
 154 100 154 100 165.5 107.5 c 128,-1,93
 177 115 177 115 182 118 c 0,94,95
 185 120 185 120 193 118.5 c 128,-1,96
 201 117 201 117 204 120 c 0,97,98
 211 126 211 126 216.5 138.5 c 128,-1,99
 222 151 222 151 228 156 c 0,100,101
 235 163 235 163 242 167.5 c 128,-1,102
 249 172 249 172 258.5 177 c 128,-1,103
 268 182 268 182 274 186 c 0,104,105
 284 192 284 192 299 202.5 c 128,-1,106
 314 213 314 213 326.5 220.5 c 128,-1,107
 339 228 339 228 354 234 c 0,108,109
 368 240 368 240 395 243 c 128,-1,110
 422 246 422 246 438 254 c 0,111,112
 464 268 464 268 464 290 c 2,113,-1
 464 292 l 2,114,115
 464 303 464 303 456 310 c 128,-1,116
 448 317 448 317 436 318 c 2,117,-1
 428 318 l 2,118,119
 404 318 404 318 370 298 c 0,120,121
 334 278 334 278 266 220 c 0,122,123
 259 214 259 214 251 201 c 128,-1,124
 243 188 243 188 234 182 c 0,125,126
 213 166 213 166 189 165 c 0,127,128
 119 160 119 160 117 160 c 0,129,130
 86 160 86 160 59 171 c 0,131,132
 50 175 50 175 50 188 c 0,133,134
 50 208 50 208 64 216 c 0,26,27
EndSplineSet
EndChar

StartChar: uni05D5
Encoding: 1493 1493 8
Width: 1000
GlyphClass: 2
Flags: W
LayerCount: 2
Fore
SplineSet
270 349 m 0,0,1
 283 361 283 361 304 382 c 128,-1,2
 325 403 325 403 337 413.5 c 128,-1,3
 349 424 349 424 369.5 437 c 128,-1,4
 390 450 390 450 413 459 c 0,5,6
 415 460 415 460 417 460 c 0,7,8
 424 460 424 460 430.5 439.5 c 128,-1,9
 437 419 437 419 446 415 c 0,10,11
 468 407 468 407 485 407 c 0,12,13
 499 407 499 407 524 414 c 0,14,15
 548 421 548 421 587.5 448.5 c 128,-1,16
 627 476 627 476 658 480 c 1,17,-1
 660 480 l 2,18,19
 670 480 670 480 677.5 469.5 c 128,-1,20
 685 459 685 459 685 446 c 0,21,22
 685 439 685 439 682 433 c 0,23,24
 670 413 670 413 638 396.5 c 128,-1,25
 606 380 606 380 595 370 c 0,26,27
 593 369 593 369 587 364 c 128,-1,28
 581 359 581 359 579 357 c 128,-1,29
 577 355 577 355 573.5 350.5 c 128,-1,30
 570 346 570 346 568.5 342 c 128,-1,31
 567 338 567 338 566 333 c 2,32,-1
 566 328 l 2,33,34
 566 319 566 319 573.5 306 c 128,-1,35
 581 293 581 293 583 286 c 0,36,37
 586 274 586 274 586.5 253 c 128,-1,38
 587 232 587 232 591 219 c 0,39,40
 606 167 606 167 634 107 c 0,41,42
 638 98 638 98 652 81 c 128,-1,43
 666 64 666 64 669 49 c 0,44,45
 673 25 673 25 673 16 c 0,46,47
 673 -4 673 -4 663 -41 c 0,48,49
 659 -55 659 -55 639 -59 c 0,50,51
 636 -59 636 -59 625.5 -60.5 c 128,-1,52
 615 -62 615 -62 610 -62 c 0,53,54
 594 -62 594 -62 581 -53 c 0,55,56
 577 -50 577 -50 574 -47 c 128,-1,57
 571 -44 571 -44 568.5 -41.5 c 128,-1,58
 566 -39 566 -39 563.5 -34.5 c 128,-1,59
 561 -30 561 -30 560 -28 c 128,-1,60
 559 -26 559 -26 557.5 -20.5 c 128,-1,61
 556 -15 556 -15 555 -13 c 128,-1,62
 554 -11 554 -11 552.5 -4 c 128,-1,63
 551 3 551 3 550 5 c 0,64,65
 541 35 541 35 534 84 c 128,-1,66
 527 133 527 133 518 163 c 0,67,68
 516 171 516 171 512.5 187 c 128,-1,69
 509 203 509 203 506.5 211.5 c 128,-1,70
 504 220 504 220 497 230 c 128,-1,71
 490 240 490 240 479 245 c 0,72,73
 475 247 475 247 469 247 c 0,74,75
 461 247 461 247 454 242 c 128,-1,76
 447 237 447 237 436 223.5 c 128,-1,77
 425 210 425 210 422 207 c 0,78,79
 387 169 387 169 324 169 c 0,80,81
 316 169 316 169 316 178 c 0,82,83
 316 189 316 189 327 207 c 0,84,85
 335 219 335 219 352.5 230 c 128,-1,86
 370 241 370 241 375 246 c 0,87,88
 382 252 382 252 393.5 260 c 128,-1,89
 405 268 405 268 412.5 275 c 128,-1,90
 420 282 420 282 425 293 c 0,91,92
 439 321 439 321 439 335 c 0,93,94
 439 348 439 348 429 358 c 0,95,96
 417 370 417 370 398 370 c 0,97,98
 386 370 386 370 356 362 c 0,99,100
 338 358 338 358 315.5 341.5 c 128,-1,101
 293 325 293 325 280 320 c 0,102,103
 264 313 264 313 261 322 c 0,104,105
 255 336 255 336 270 349 c 0,0,1
EndSplineSet
EndChar

StartChar: uni05D7
Encoding: 1495 1495 9
Width: 1000
GlyphClass: 2
Flags: W
LayerCount: 2
Fore
SplineSet
486 102 m 0,0,1
 465 91 465 91 468 82 c 0,2,3
 473 66 473 66 500 58 c 0,4,5
 510 56 510 56 513 56 c 0,6,7
 520 56 520 56 542 62 c 0,8,9
 562 66 562 66 566 74 c 0,10,11
 572 88 572 88 572 96 c 0,12,13
 572 107 572 107 564 112 c 0,14,15
 558 117 558 117 551 117 c 0,16,17
 546 117 546 117 535.5 113.5 c 128,-1,18
 525 110 525 110 520 110 c 0,19,20
 495 106 495 106 486 102 c 0,0,1
494 226 m 0,21,22
 486 231 486 231 477 231 c 0,23,24
 471 231 471 231 442 220 c 0,25,26
 441 220 441 220 436.5 218 c 128,-1,27
 432 216 432 216 431 215.5 c 128,-1,28
 430 215 430 215 426 213 c 128,-1,29
 422 211 422 211 421 210.5 c 128,-1,30
 420 210 420 210 417 208 c 128,-1,31
 414 206 414 206 413 204.5 c 128,-1,32
 412 203 412 203 410 200.5 c 128,-1,33
 408 198 408 198 407 195.5 c 128,-1,34
 406 193 406 193 406 190 c 0,35,36
 406 188 406 188 405.5 184.5 c 128,-1,37
 405 181 405 181 405 179 c 0,38,39
 405 148 405 148 430 134 c 0,40,41
 437 130 437 130 445 130 c 0,42,43
 452 130 452 130 466.5 136 c 128,-1,44
 481 142 481 142 488 144 c 0,45,46
 493 145 493 145 502 146 c 128,-1,47
 511 147 511 147 516.5 148 c 128,-1,48
 522 149 522 149 527 152.5 c 128,-1,49
 532 156 532 156 532 162 c 2,50,-1
 532 167 l 2,51,52
 532 201 532 201 494 226 c 0,21,22
359 301 m 1,53,54
 418 305 418 305 512.5 327 c 128,-1,55
 607 349 607 349 671 352 c 2,56,-1
 673 352 l 2,57,58
 677 352 677 352 680.5 351 c 128,-1,59
 684 350 684 350 687.5 347.5 c 128,-1,60
 691 345 691 345 693.5 343.5 c 128,-1,61
 696 342 696 342 699.5 337 c 128,-1,62
 703 332 703 332 704 330.5 c 128,-1,63
 705 329 705 329 708.5 322.5 c 128,-1,64
 712 316 712 316 713 315 c 0,65,66
 727 290 727 290 727 275 c 0,67,68
 727 268 727 268 724 259 c 0,69,70
 721 252 721 252 705 251 c 128,-1,71
 689 250 689 250 689 244 c 2,72,-1
 689 243 l 1,73,74
 695 206 695 206 725 146.5 c 128,-1,75
 755 87 755 87 758 44 c 2,76,-1
 758 36 l 2,77,78
 758 3 758 3 745 -21.5 c 128,-1,79
 732 -46 732 -46 706 -47 c 2,80,-1
 703 -47 l 2,81,82
 686 -47 686 -47 671 -35 c 128,-1,83
 656 -23 656 -23 647 -8 c 128,-1,84
 638 7 638 7 623 20 c 128,-1,85
 608 33 608 33 590 35 c 2,86,-1
 579 35 l 2,87,88
 544 35 544 35 495 9 c 128,-1,89
 446 -17 446 -17 415 -22 c 0,90,91
 404 -24 404 -24 384 -24 c 0,92,93
 351 -24 351 -24 310 -8 c 0,94,95
 297 -3 297 -3 304 21 c 0,96,97
 305 25 305 25 313 26.5 c 128,-1,98
 321 28 321 28 322 32 c 0,99,100
 324 46 324 46 324 52 c 0,101,102
 324 69 324 69 314 78 c 0,103,104
 305 86 305 86 286.5 86.5 c 128,-1,105
 268 87 268 87 260 92 c 0,106,107
 234 109 234 109 222 136 c 0,108,109
 200 189 200 189 200 213 c 0,110,111
 200 218 200 218 202 234 c 0,112,113
 204 247 204 247 223.5 258 c 128,-1,114
 243 269 243 269 248 274 c 0,115,116
 255 281 255 281 266.5 297.5 c 128,-1,117
 278 314 278 314 290 322 c 0,118,119
 304 332 304 332 321 332 c 0,120,121
 331 332 331 332 336 330 c 0,122,123
 343 328 343 328 347 314.5 c 128,-1,124
 351 301 351 301 358 301 c 2,125,-1
 359 301 l 1,53,54
EndSplineSet
EndChar

StartChar: uni05D9
Encoding: 1497 1497 10
Width: 1000
GlyphClass: 2
Flags: W
LayerCount: 2
Fore
SplineSet
158 167 m 0,0,1
 193 204 193 204 251 237 c 0,2,3
 273 249 273 249 308 259.5 c 128,-1,4
 343 270 343 270 363 279 c 0,5,6
 380 287 380 287 406.5 304.5 c 128,-1,7
 433 322 433 322 452 330 c 0,8,9
 514 357 514 357 623 392 c 0,10,11
 641 398 641 398 647 393 c 0,12,13
 662 379 662 379 655 363 c 0,14,15
 652 356 652 356 640 350 c 128,-1,16
 628 344 628 344 624 339 c 0,17,18
 619 331 619 331 616 323 c 128,-1,19
 613 315 613 315 610 304.5 c 128,-1,20
 607 294 607 294 604 287 c 0,21,22
 580 226 580 226 574 208 c 0,23,24
 563 177 563 177 560 164 c 0,25,26
 559 160 559 160 554 148.5 c 128,-1,27
 549 137 549 137 549 133 c 0,28,29
 549 130 549 130 552 130 c 2,30,-1
 554 130 l 1,31,32
 571 134 571 134 583.5 141.5 c 128,-1,33
 596 149 596 149 611.5 161.5 c 128,-1,34
 627 174 627 174 638 181 c 0,35,36
 650 189 650 189 675 206.5 c 128,-1,37
 700 224 700 224 718 234 c 0,38,39
 768 260 768 260 815 276 c 0,40,41
 858 291 858 291 882 291 c 2,42,-1
 892 291 l 2,43,44
 924 289 924 289 934 269 c 0,45,46
 938 261 938 261 938 251 c 0,47,48
 938 235 938 235 925 219 c 0,49,50
 915 207 915 207 879 205 c 2,51,-1
 875 205 l 2,52,53
 865 205 865 205 848.5 209.5 c 128,-1,54
 832 214 832 214 823 214 c 128,-1,55
 814 214 814 214 809 212 c 0,56,57
 785 205 785 205 766.5 196.5 c 128,-1,58
 748 188 748 188 721.5 171.5 c 128,-1,59
 695 155 695 155 682 148 c 0,60,61
 618 113 618 113 583 89 c 0,62,63
 541 59 541 59 526 40 c 0,64,65
 520 33 520 33 518 15.5 c 128,-1,66
 516 -2 516 -2 508 -9 c 0,67,68
 503 -14 503 -14 496.5 -17 c 128,-1,69
 490 -20 490 -20 485.5 -21 c 128,-1,70
 481 -22 481 -22 471 -23.5 c 128,-1,71
 461 -25 461 -25 457 -26 c 0,72,73
 442 -29 442 -29 430 -29 c 0,74,75
 417 -29 417 -29 409 -26 c 0,76,77
 396 -21 396 -21 399 -7 c 0,78,79
 407 28 407 28 431 72 c 0,80,81
 432 75 432 75 439 76.5 c 128,-1,82
 446 78 446 78 447 82 c 0,83,84
 449 94 449 94 449 99 c 0,85,86
 449 114 449 114 440 123 c 0,87,88
 433 131 433 131 422 131 c 0,89,90
 417 131 417 131 407 129 c 0,91,92
 390 124 390 124 367.5 112 c 128,-1,93
 345 100 345 100 336 96 c 128,-1,94
 327 92 327 92 313 85 c 128,-1,95
 299 78 299 78 287.5 73.5 c 128,-1,96
 276 69 276 69 263 66 c 0,97,98
 253 64 253 64 243.5 67 c 128,-1,99
 234 70 234 70 236 77 c 0,100,101
 241 100 241 100 277 128 c 0,102,103
 298 145 298 145 368 184 c 0,104,105
 395 199 395 199 410 202 c 0,106,107
 415 203 415 203 424 203 c 0,108,109
 431 203 431 203 444 201.5 c 128,-1,110
 457 200 457 200 462 200 c 0,111,112
 465 200 465 200 470 198 c 128,-1,113
 475 196 475 196 477 195.5 c 128,-1,114
 479 195 479 195 481 198 c 0,115,116
 490 227 490 227 490 234 c 0,117,118
 490 248 490 248 481 258 c 0,119,120
 476 264 476 264 468 264 c 0,121,122
 463 264 463 264 451 260 c 128,-1,123
 439 256 439 256 434 255 c 0,124,125
 421 253 421 253 380 239 c 0,126,127
 350 229 350 229 320 216 c 0,128,129
 296 205 296 205 266 188 c 0,130,131
 255 182 255 182 239 172 c 128,-1,132
 223 162 223 162 213 156 c 0,133,134
 186 140 186 140 175 135 c 0,135,136
 174 135 174 135 166.5 131 c 128,-1,137
 159 127 159 127 158 127.5 c 128,-1,138
 157 128 157 128 152 131 c 0,139,140
 148 138 148 138 148 145 c 0,141,142
 148 157 148 157 158 167 c 0,0,1
EndSplineSet
EndChar

StartChar: uni05DC
Encoding: 1500 1500 11
Width: 1000
GlyphClass: 2
Flags: W
LayerCount: 2
Fore
SplineSet
295 320 m 0,0,1
 313 336 313 336 339 357.5 c 128,-1,2
 365 379 365 379 385.5 397 c 128,-1,3
 406 415 406 415 427 436 c 0,4,5
 457 466 457 466 557 582 c 0,6,7
 568 594 568 594 586.5 611 c 128,-1,8
 605 628 605 628 616.5 642 c 128,-1,9
 628 656 628 656 637 676 c 0,10,11
 645 696 645 696 645 717 c 0,12,13
 645 725 645 725 643.5 741 c 128,-1,14
 642 757 642 757 642 764 c 0,15,16
 642 790 642 790 653 810 c 0,17,18
 659 822 659 822 677 822 c 0,19,20
 680 822 680 822 686 821.5 c 128,-1,21
 692 821 692 821 696 821 c 0,22,23
 708 821 708 821 717 826 c 0,24,25
 725 831 725 831 732 845 c 128,-1,26
 739 859 739 859 747 864 c 0,27,28
 762 874 762 874 771 860 c 0,29,30
 777 850 777 850 777 837 c 0,31,32
 777 835 777 835 776.5 831.5 c 128,-1,33
 776 828 776 828 776 826 c 0,34,35
 776 825 776 825 776.5 821.5 c 128,-1,36
 777 818 777 818 777 816 c 0,37,38
 777 811 777 811 779 801.5 c 128,-1,39
 781 792 781 792 781 787 c 0,40,41
 781 779 781 779 779 774 c 0,42,43
 768 742 768 742 725 662 c 0,44,45
 706 627 706 627 689 608 c 0,46,47
 671 588 671 588 641.5 563.5 c 128,-1,48
 612 539 612 539 599 526 c 0,49,50
 501 432 501 432 461 386 c 0,51,52
 456 380 456 380 442.5 368 c 128,-1,53
 429 356 429 356 423 347 c 128,-1,54
 417 338 417 338 417 325 c 2,55,-1
 417 322 l 2,56,57
 419 294 419 294 469 288 c 0,58,59
 475 287 475 287 485 287 c 0,60,61
 511 287 511 287 537 306 c 0,62,63
 549 314 549 314 558.5 344 c 128,-1,64
 568 374 568 374 584 374 c 2,65,-1
 587 374 l 2,66,67
 605 371 605 371 605 350 c 0,68,69
 605 341 605 341 601.5 322 c 128,-1,70
 598 303 598 303 597 298 c 0,71,72
 594 279 594 279 575 266 c 0,73,74
 570 263 570 263 556.5 253.5 c 128,-1,75
 543 244 543 244 538.5 241 c 128,-1,76
 534 238 534 238 523 231.5 c 128,-1,77
 512 225 512 225 505 222 c 128,-1,78
 498 219 498 219 487 215 c 128,-1,79
 476 211 476 211 465 208 c 0,80,81
 450 204 450 204 436 204 c 0,82,83
 421 204 421 204 371 216 c 0,84,85
 314 229 314 229 287 248 c 0,86,87
 263 264 263 264 263 287 c 2,88,-1
 263 292 l 2,89,90
 264 299 264 299 269 303.5 c 128,-1,91
 274 308 274 308 282.5 312 c 128,-1,92
 291 316 291 316 295 320 c 0,0,1
EndSplineSet
EndChar

StartChar: uni05E0
Encoding: 1504 1504 12
Width: 1000
GlyphClass: 2
Flags: W
LayerCount: 2
Fore
SplineSet
493 300 m 0,0,1
 524 330 524 330 567.5 379.5 c 128,-1,2
 611 429 611 429 641 458 c 0,3,4
 646 463 646 463 662.5 480.5 c 128,-1,5
 679 498 679 498 685.5 503.5 c 128,-1,6
 692 509 692 509 706 519.5 c 128,-1,7
 720 530 720 530 735 538 c 0,8,9
 741 540 741 540 744 540 c 0,10,11
 766 540 766 540 766 528 c 0,12,13
 766 525 766 525 765 524 c 0,14,15
 752 496 752 496 718.5 461.5 c 128,-1,16
 685 427 685 427 671 402 c 0,17,18
 667 394 667 394 671 386 c 128,-1,19
 675 378 675 378 683 376 c 0,20,21
 687 375 687 375 694 375 c 0,22,23
 700 375 700 375 733 386 c 0,24,25
 743 389 743 389 767 401.5 c 128,-1,26
 791 414 791 414 809 416 c 0,27,28
 816 417 816 417 820.5 411 c 128,-1,29
 825 405 825 405 827 396 c 0,30,31
 829 382 829 382 829 377 c 0,32,33
 829 359 829 359 819 348 c 0,34,35
 813 340 813 340 796 335.5 c 128,-1,36
 779 331 779 331 773 324 c 0,37,38
 729 274 729 274 668.5 182 c 128,-1,39
 608 90 608 90 560 37 c 0,40,41
 558 34 558 34 539.5 10 c 128,-1,42
 521 -14 521 -14 506.5 -27 c 128,-1,43
 492 -40 492 -40 480 -40 c 0,44,45
 471 -40 471 -40 459.5 -36 c 128,-1,46
 448 -32 448 -32 432 -25 c 128,-1,47
 416 -18 416 -18 412 -16 c 0,48,49
 383 -5 383 -5 336 9 c 128,-1,50
 289 23 289 23 260 34 c 0,51,52
 241 41 241 41 241 49 c 0,53,54
 241 64 241 64 260 91 c 128,-1,55
 279 118 279 118 296 127 c 0,56,57
 297 128 297 128 300 128 c 0,58,59
 310 128 310 128 340 119 c 128,-1,60
 370 110 370 110 373 110 c 0,61,62
 387 110 387 110 424 82.5 c 128,-1,63
 461 55 461 55 468 53 c 0,64,65
 479 49 479 49 487.5 44.5 c 128,-1,66
 496 40 496 40 500 38 c 128,-1,67
 504 36 504 36 506 36 c 0,68,69
 510 36 510 36 525 60 c 0,70,71
 545 90 545 90 558 103 c 0,72,73
 568 114 568 114 572.5 120.5 c 128,-1,74
 577 127 577 127 580.5 134.5 c 128,-1,75
 584 142 584 142 590 150 c 0,76,77
 600 164 600 164 641 217.5 c 128,-1,78
 682 271 682 271 707 308 c 0,79,80
 710 312 710 312 710 316 c 128,-1,81
 710 320 710 320 703 320 c 0,82,83
 695 320 695 320 663 311.5 c 128,-1,84
 631 303 631 303 619 302 c 0,85,86
 602 301 602 301 555 291 c 128,-1,87
 508 281 508 281 495 281 c 0,88,89
 484 281 484 281 484 286 c 0,90,91
 484 292 484 292 493 300 c 0,0,1
EndSplineSet
EndChar

StartChar: uni05E1
Encoding: 1505 1505 13
Width: 1000
GlyphClass: 2
Flags: W
LayerCount: 2
Fore
SplineSet
598 752 m 0,0,1
 603 752 603 752 612 755 c 128,-1,2
 621 758 621 758 626 758 c 0,3,4
 633 758 633 758 638 754 c 0,5,6
 647 748 647 748 647 735 c 0,7,8
 647 726 647 726 644 716 c 0,9,10
 636 687 636 687 620 684 c 0,11,12
 600 679 600 679 577 679 c 0,13,14
 567 679 567 679 546.5 680.5 c 128,-1,15
 526 682 526 682 514 682 c 0,16,17
 506 682 506 682 484 680 c 0,18,19
 471 678 471 678 451.5 668 c 128,-1,20
 432 658 432 658 418 656 c 0,21,22
 393 652 393 652 335 636 c 128,-1,23
 277 620 277 620 245 620 c 0,24,25
 215 620 215 620 184 630 c 0,26,27
 172 634 172 634 172 639 c 0,28,29
 172 646 172 646 194.5 655 c 128,-1,30
 217 664 217 664 260.5 675.5 c 128,-1,31
 304 687 304 687 312 690 c 0,32,33
 347 701 347 701 376.5 708 c 128,-1,34
 406 715 406 715 448 723 c 128,-1,35
 490 731 490 731 514 736 c 0,36,37
 568 747 568 747 598 752 c 0,0,1
706 530 m 0,38,39
 709 536 709 536 709 540 c 0,40,41
 709 547 709 547 701 547 c 0,42,43
 689 547 689 547 643 528 c 128,-1,44
 597 509 597 509 580 506 c 0,45,46
 574 505 574 505 563.5 505 c 128,-1,47
 553 505 553 505 546.5 503 c 128,-1,48
 540 501 540 501 536 494 c 0,49,50
 521 464 521 464 521 441 c 0,51,52
 521 422 521 422 534 422 c 2,53,-1
 538 422 l 1,54,55
 602 436 602 436 642 458.5 c 128,-1,56
 682 481 682 481 706 530 c 0,38,39
220 572 m 0,57,58
 260 601 260 601 328 618 c 0,59,60
 360 626 360 626 474 638 c 0,61,62
 588 649 588 649 605 649 c 0,63,64
 609 649 609 649 619 648.5 c 128,-1,65
 629 648 629 648 634 648 c 0,66,67
 640 648 640 648 645 637.5 c 128,-1,68
 650 627 650 627 656 628 c 0,69,70
 663 629 663 629 666.5 639.5 c 128,-1,71
 670 650 670 650 674 652 c 0,72,73
 680 656 680 656 691.5 664.5 c 128,-1,74
 703 673 703 673 708.5 677 c 128,-1,75
 714 681 714 681 724.5 685 c 128,-1,76
 735 689 735 689 746 690 c 2,77,-1
 747 690 l 2,78,79
 755 690 755 690 760 683 c 128,-1,80
 765 676 765 676 765 667 c 0,81,82
 765 665 765 665 764.5 663 c 128,-1,83
 764 661 764 661 764 660 c 0,84,85
 761 647 761 647 746.5 633.5 c 128,-1,86
 732 620 732 620 728 612 c 0,87,88
 714 590 714 590 724 588 c 0,89,90
 739 584 739 584 756 584 c 0,91,92
 771 584 771 584 798.5 588 c 128,-1,93
 826 592 826 592 839 592 c 0,94,95
 873 592 873 592 896 570 c 0,96,97
 902 564 902 564 902 558 c 0,98,99
 902 548 902 548 886 539.5 c 128,-1,100
 870 531 870 531 845.5 521.5 c 128,-1,101
 821 512 821 512 810 504 c 0,102,103
 761 469 761 469 734 452 c 0,104,105
 679 418 679 418 650 406 c 0,106,107
 638 402 638 402 624 402 c 0,108,109
 619 402 619 402 609.5 402.5 c 128,-1,110
 600 403 600 403 596 403 c 0,111,112
 572 403 572 403 562 386 c 0,113,114
 552 370 552 370 552 350 c 0,115,116
 552 336 552 336 559.5 309.5 c 128,-1,117
 567 283 567 283 568 268 c 0,118,119
 570 243 570 243 579.5 193 c 128,-1,120
 589 143 589 143 590 108 c 0,121,122
 590 70 590 70 572 42 c 0,123,124
 551 10 551 10 536 10 c 0,125,126
 534 10 534 10 528 12 c 0,127,128
 478 32 478 32 456 88 c 1,129,-1
 456 89 l 2,130,131
 455 90 455 90 455 91 c 0,132,133
 455 95 455 95 473 96.5 c 128,-1,134
 491 98 491 98 492 106 c 0,135,136
 494 140 494 140 494 154 c 0,137,138
 494 206 494 206 474 304 c 0,139,140
 473 311 473 311 468 334.5 c 128,-1,141
 463 358 463 358 461.5 364.5 c 128,-1,142
 460 371 460 371 455 389 c 128,-1,143
 450 407 450 407 445 416 c 128,-1,144
 440 425 440 425 432 439 c 128,-1,145
 424 453 424 453 414 466 c 0,146,147
 405 476 405 476 393 476 c 0,148,149
 386 476 386 476 369.5 472 c 128,-1,150
 353 468 353 468 344 468 c 0,151,152
 330 468 330 468 307 466.5 c 128,-1,153
 284 465 284 465 273 465 c 0,154,155
 259 465 259 465 250 466 c 0,156,157
 248 466 248 466 241.5 466.5 c 128,-1,158
 235 467 235 467 232.5 467 c 128,-1,159
 230 467 230 467 225.5 468.5 c 128,-1,160
 221 470 221 470 218 472 c 128,-1,161
 215 474 215 474 212 478 c 0,162,163
 208 485 208 485 212 493 c 128,-1,164
 216 501 216 501 224 504 c 0,165,166
 263 518 263 518 330.5 531 c 128,-1,167
 398 544 398 544 440 560 c 1,168,-1
 446 563 l 2,169,170
 446 564 446 564 442 564 c 0,171,172
 435 564 435 564 403 560 c 128,-1,173
 371 556 371 556 360 556 c 0,174,175
 306 553 306 553 274 550 c 0,176,177
 266 549 266 549 254 544.5 c 128,-1,178
 242 540 242 540 236 540 c 0,179,180
 228 540 228 540 224 542 c 0,181,182
 216 545 216 545 214.5 556 c 128,-1,183
 213 567 213 567 220 572 c 0,57,58
EndSplineSet
EndChar

StartChar: uni05E3
Encoding: 1507 1507 14
Width: 1000
GlyphClass: 2
Flags: W
LayerCount: 2
Fore
SplineSet
415 56 m 0,0,1
 490 118 490 118 536.5 176 c 128,-1,2
 583 234 583 234 650 335 c 0,3,4
 660 350 660 350 665 358 c 0,5,6
 674 371 674 371 674 387 c 0,7,8
 674 409 674 409 657 418 c 0,9,10
 647 423 647 423 639 423 c 0,11,12
 629 423 629 423 610 415 c 128,-1,13
 591 407 591 407 579 407 c 0,14,15
 578 407 578 407 575 407.5 c 128,-1,16
 572 408 572 408 571 408 c 0,17,18
 562 410 562 410 554.5 415.5 c 128,-1,19
 547 421 547 421 547 428 c 0,20,21
 547 430 547 430 549 434 c 0,22,23
 567 464 567 464 615 482 c 0,24,25
 638 491 638 491 658.5 495 c 128,-1,26
 679 499 679 499 707.5 503 c 128,-1,27
 736 507 736 507 753 510 c 0,28,29
 763 512 763 512 793.5 521 c 128,-1,30
 824 530 824 530 842 530 c 0,31,32
 847 530 847 530 861 528 c 0,33,34
 871 527 871 527 871 513 c 0,35,36
 871 504 871 504 865 492 c 0,37,38
 857 478 857 478 838.5 463.5 c 128,-1,39
 820 449 820 449 813 442 c 0,40,41
 732 353 732 353 669 278 c 0,42,43
 639 242 639 242 578 163.5 c 128,-1,44
 517 85 517 85 471 34 c 0,45,46
 432 -9 432 -9 411 -21 c 0,47,48
 398 -29 398 -29 383 -34 c 0,49,50
 338 -48 338 -48 313 -48 c 256,51,52
 288 -48 288 -48 259 -36 c 0,53,54
 255 -35 255 -35 255 -31 c 128,-1,55
 255 -27 255 -27 268 -13.5 c 128,-1,56
 281 0 281 0 281 6 c 0,57,58
 281 10 281 10 279 12 c 0,59,60
 271 21 271 21 256 21 c 0,61,62
 249 21 249 21 236.5 19 c 128,-1,63
 224 17 224 17 218 17 c 0,64,65
 202 17 202 17 197 30 c 0,66,67
 195 36 195 36 195 39 c 0,68,69
 195 61 195 61 253 82 c 0,70,71
 270 88 270 88 282 88 c 0,72,73
 289 88 289 88 297 86.5 c 128,-1,74
 305 85 305 85 315.5 83 c 128,-1,75
 326 81 326 81 333 80 c 0,76,77
 346 78 346 78 367.5 64 c 128,-1,78
 389 50 389 50 399 50 c 0,79,80
 408 50 408 50 415 56 c 0,0,1
EndSplineSet
EndChar

StartChar: uni05E4
Encoding: 1508 1508 15
Width: 1000
GlyphClass: 2
Flags: W
LayerCount: 2
Fore
SplineSet
415 56 m 0,0,1
 490 118 490 118 536.5 176 c 128,-1,2
 583 234 583 234 650 335 c 0,3,4
 660 350 660 350 665 358 c 0,5,6
 674 371 674 371 674 387 c 0,7,8
 674 409 674 409 657 418 c 0,9,10
 647 423 647 423 639 423 c 0,11,12
 629 423 629 423 610 415 c 128,-1,13
 591 407 591 407 579 407 c 0,14,15
 578 407 578 407 575 407.5 c 128,-1,16
 572 408 572 408 571 408 c 0,17,18
 562 410 562 410 554.5 415.5 c 128,-1,19
 547 421 547 421 547 428 c 0,20,21
 547 430 547 430 549 434 c 0,22,23
 567 464 567 464 615 482 c 0,24,25
 638 491 638 491 658.5 495 c 128,-1,26
 679 499 679 499 707.5 503 c 128,-1,27
 736 507 736 507 753 510 c 0,28,29
 763 512 763 512 793.5 521 c 128,-1,30
 824 530 824 530 842 530 c 0,31,32
 847 530 847 530 861 528 c 0,33,34
 871 527 871 527 871 513 c 0,35,36
 871 504 871 504 865 492 c 0,37,38
 857 478 857 478 838.5 463.5 c 128,-1,39
 820 449 820 449 813 442 c 0,40,41
 732 353 732 353 669 278 c 0,42,43
 639 242 639 242 578 163.5 c 128,-1,44
 517 85 517 85 471 34 c 0,45,46
 432 -9 432 -9 411 -21 c 0,47,48
 398 -29 398 -29 383 -34 c 0,49,50
 338 -48 338 -48 313 -48 c 256,51,52
 288 -48 288 -48 259 -36 c 0,53,54
 255 -35 255 -35 255 -31 c 128,-1,55
 255 -27 255 -27 268 -13.5 c 128,-1,56
 281 0 281 0 281 6 c 0,57,58
 281 10 281 10 279 12 c 0,59,60
 271 21 271 21 256 21 c 0,61,62
 249 21 249 21 236.5 19 c 128,-1,63
 224 17 224 17 218 17 c 0,64,65
 202 17 202 17 197 30 c 0,66,67
 195 36 195 36 195 39 c 0,68,69
 195 61 195 61 253 82 c 0,70,71
 270 88 270 88 282 88 c 0,72,73
 289 88 289 88 297 86.5 c 128,-1,74
 305 85 305 85 315.5 83 c 128,-1,75
 326 81 326 81 333 80 c 0,76,77
 346 78 346 78 367.5 64 c 128,-1,78
 389 50 389 50 399 50 c 0,79,80
 408 50 408 50 415 56 c 0,0,1
EndSplineSet
EndChar

StartChar: uni05E5
Encoding: 1509 1509 16
Width: 1000
GlyphClass: 2
Flags: W
LayerCount: 2
Fore
SplineSet
302 216 m 0,0,1
 323 224 323 224 343 251.5 c 128,-1,2
 363 279 363 279 384 287 c 0,3,4
 386 288 386 288 389 288 c 0,5,6
 394 288 394 288 404 281 c 128,-1,7
 414 274 414 274 420 274 c 0,8,9
 423 274 423 274 425 275 c 0,10,11
 460 289 460 289 519.5 321 c 128,-1,12
 579 353 579 353 596 359 c 0,13,14
 602 361 602 361 603 361 c 0,15,16
 605 361 605 361 605 359 c 0,17,18
 605 356 605 356 568 314 c 128,-1,19
 531 272 531 272 531 255 c 0,20,21
 531 246 531 246 540 242 c 0,22,23
 557 234 557 234 578 234 c 0,24,25
 608 234 608 234 661.5 265 c 128,-1,26
 715 296 715 296 729 302 c 0,27,28
 766 317 766 317 826.5 351 c 128,-1,29
 887 385 887 385 931 401 c 0,30,31
 933 402 933 402 937 402 c 0,32,33
 956 402 956 402 959 385 c 0,34,35
 961 377 961 377 961 372 c 0,36,37
 961 358 961 358 948 342 c 0,38,39
 937 328 937 328 927.5 316.5 c 128,-1,40
 918 305 918 305 905.5 292.5 c 128,-1,41
 893 280 893 280 887 274 c 128,-1,42
 881 268 881 268 863 251.5 c 128,-1,43
 845 235 845 235 839 229 c 0,44,45
 761 157 761 157 701 111 c 0,46,47
 670 87 670 87 625 63 c 0,48,49
 559 26 559 26 527 12 c 0,50,51
 495 -1 495 -1 497 9 c 0,52,53
 503 24 503 24 513 36.5 c 128,-1,54
 523 49 523 49 528 53.5 c 128,-1,55
 533 58 533 58 552 74 c 0,56,57
 573 92 573 92 609 113.5 c 128,-1,58
 645 135 645 135 665 152 c 0,59,60
 684 168 684 168 699.5 182.5 c 128,-1,61
 715 197 715 197 734.5 218 c 128,-1,62
 754 239 754 239 766 251 c 0,63,64
 769 254 769 254 780 261 c 0,65,66
 796 273 796 273 788 273 c 0,67,68
 775 273 775 273 764 269.5 c 128,-1,69
 753 266 753 266 739 260 c 128,-1,70
 725 254 725 254 716 251 c 0,71,72
 658 232 658 232 647 227 c 128,-1,73
 636 222 636 222 619 213 c 128,-1,74
 602 204 602 204 589 199 c 0,75,76
 531 176 531 176 499 166 c 0,77,78
 463 156 463 156 451 156 c 2,79,-1
 443 156 l 2,80,81
 426 158 426 158 425 171 c 0,82,83
 424 174 424 174 424 178 c 0,84,85
 424 180 424 180 434 212 c 0,86,87
 435 214 435 214 439 219.5 c 128,-1,88
 443 225 443 225 442 230 c 0,89,90
 441 236 441 236 437.5 240.5 c 128,-1,91
 434 245 434 245 430 243 c 0,92,93
 421 239 421 239 410.5 224 c 128,-1,94
 400 209 400 209 390 205 c 0,95,96
 385 203 385 203 378.5 211 c 128,-1,97
 372 219 372 219 367 218 c 0,98,99
 313 205 313 205 280 177 c 0,100,101
 262 162 262 162 240.5 126 c 128,-1,102
 219 90 219 90 196 75 c 0,103,104
 192 73 192 73 190 73 c 0,105,106
 184 73 184 73 174.5 85 c 128,-1,107
 165 97 165 97 159 100 c 0,108,109
 155 102 155 102 149.5 103 c 128,-1,110
 144 104 144 104 140 104.5 c 128,-1,111
 136 105 136 105 132.5 107.5 c 128,-1,112
 129 110 129 110 128 114 c 0,113,114
 128 115 128 115 128 117 c 2,115,-1
 127 119 l 1,116,117
 127 128 127 128 136 141.5 c 128,-1,118
 145 155 145 155 146 163 c 0,119,120
 150 187 150 187 150 194 c 0,121,122
 150 207 150 207 144 217 c 0,123,124
 139 226 139 226 117.5 228.5 c 128,-1,125
 96 231 96 231 96 240 c 2,126,-1
 96 242 l 2,127,128
 97 255 97 255 105 263 c 128,-1,129
 113 271 113 271 128.5 278.5 c 128,-1,130
 144 286 144 286 151 292 c 0,131,132
 156 296 156 296 163.5 304.5 c 128,-1,133
 171 313 171 313 177 317.5 c 128,-1,134
 183 322 183 322 191 322 c 2,135,-1
 193 322 l 2,136,137
 195 321 195 321 196 321 c 0,138,139
 201 320 201 320 204.5 318.5 c 128,-1,140
 208 317 208 317 211 313.5 c 128,-1,141
 214 310 214 310 216 308.5 c 128,-1,142
 218 307 218 307 221 301 c 128,-1,143
 224 295 224 295 224.5 293.5 c 128,-1,144
 225 292 225 292 228 284.5 c 128,-1,145
 231 277 231 277 231 276 c 0,146,147
 232 274 232 274 232 269 c 128,-1,148
 232 264 232 264 228.5 253.5 c 128,-1,149
 225 243 225 243 225 239 c 0,150,151
 225 233 225 233 229 229 c 0,152,153
 248 212 248 212 279 212 c 0,154,155
 293 212 293 212 302 216 c 0,0,1
EndSplineSet
EndChar

StartChar: uni05E6
Encoding: 1510 1510 17
Width: 1000
GlyphClass: 2
Flags: W
LayerCount: 2
Fore
SplineSet
302 216 m 0,0,1
 323 224 323 224 343 251.5 c 128,-1,2
 363 279 363 279 384 287 c 0,3,4
 386 288 386 288 389 288 c 0,5,6
 394 288 394 288 404 281 c 128,-1,7
 414 274 414 274 420 274 c 0,8,9
 423 274 423 274 425 275 c 0,10,11
 460 289 460 289 519.5 321 c 128,-1,12
 579 353 579 353 596 359 c 0,13,14
 602 361 602 361 603 361 c 0,15,16
 605 361 605 361 605 359 c 0,17,18
 605 356 605 356 568 314 c 128,-1,19
 531 272 531 272 531 255 c 0,20,21
 531 246 531 246 540 242 c 0,22,23
 557 234 557 234 578 234 c 0,24,25
 608 234 608 234 661.5 265 c 128,-1,26
 715 296 715 296 729 302 c 0,27,28
 766 317 766 317 826.5 351 c 128,-1,29
 887 385 887 385 931 401 c 0,30,31
 933 402 933 402 937 402 c 0,32,33
 956 402 956 402 959 385 c 0,34,35
 961 377 961 377 961 372 c 0,36,37
 961 358 961 358 948 342 c 0,38,39
 937 328 937 328 927.5 316.5 c 128,-1,40
 918 305 918 305 905.5 292.5 c 128,-1,41
 893 280 893 280 887 274 c 128,-1,42
 881 268 881 268 863 251.5 c 128,-1,43
 845 235 845 235 839 229 c 0,44,45
 761 157 761 157 701 111 c 0,46,47
 670 87 670 87 625 63 c 0,48,49
 559 26 559 26 527 12 c 0,50,51
 495 -1 495 -1 497 9 c 0,52,53
 503 24 503 24 513 36.5 c 128,-1,54
 523 49 523 49 528 53.5 c 128,-1,55
 533 58 533 58 552 74 c 0,56,57
 573 92 573 92 609 113.5 c 128,-1,58
 645 135 645 135 665 152 c 0,59,60
 684 168 684 168 699.5 182.5 c 128,-1,61
 715 197 715 197 734.5 218 c 128,-1,62
 754 239 754 239 766 251 c 0,63,64
 769 254 769 254 780 261 c 0,65,66
 796 273 796 273 788 273 c 0,67,68
 775 273 775 273 764 269.5 c 128,-1,69
 753 266 753 266 739 260 c 128,-1,70
 725 254 725 254 716 251 c 0,71,72
 658 232 658 232 647 227 c 128,-1,73
 636 222 636 222 619 213 c 128,-1,74
 602 204 602 204 589 199 c 0,75,76
 531 176 531 176 499 166 c 0,77,78
 463 156 463 156 451 156 c 2,79,-1
 443 156 l 2,80,81
 426 158 426 158 425 171 c 0,82,83
 424 174 424 174 424 178 c 0,84,85
 424 180 424 180 434 212 c 0,86,87
 435 214 435 214 439 219.5 c 128,-1,88
 443 225 443 225 442 230 c 0,89,90
 441 236 441 236 437.5 240.5 c 128,-1,91
 434 245 434 245 430 243 c 0,92,93
 421 239 421 239 410.5 224 c 128,-1,94
 400 209 400 209 390 205 c 0,95,96
 385 203 385 203 378.5 211 c 128,-1,97
 372 219 372 219 367 218 c 0,98,99
 313 205 313 205 280 177 c 0,100,101
 262 162 262 162 240.5 126 c 128,-1,102
 219 90 219 90 196 75 c 0,103,104
 192 73 192 73 190 73 c 0,105,106
 184 73 184 73 174.5 85 c 128,-1,107
 165 97 165 97 159 100 c 0,108,109
 155 102 155 102 149.5 103 c 128,-1,110
 144 104 144 104 140 104.5 c 128,-1,111
 136 105 136 105 132.5 107.5 c 128,-1,112
 129 110 129 110 128 114 c 0,113,114
 128 115 128 115 128 117 c 2,115,-1
 127 119 l 1,116,117
 127 128 127 128 136 141.5 c 128,-1,118
 145 155 145 155 146 163 c 0,119,120
 150 187 150 187 150 194 c 0,121,122
 150 207 150 207 144 217 c 0,123,124
 139 226 139 226 117.5 228.5 c 128,-1,125
 96 231 96 231 96 240 c 2,126,-1
 96 242 l 2,127,128
 97 255 97 255 105 263 c 128,-1,129
 113 271 113 271 128.5 278.5 c 128,-1,130
 144 286 144 286 151 292 c 0,131,132
 156 296 156 296 163.5 304.5 c 128,-1,133
 171 313 171 313 177 317.5 c 128,-1,134
 183 322 183 322 191 322 c 2,135,-1
 193 322 l 2,136,137
 195 321 195 321 196 321 c 0,138,139
 201 320 201 320 204.5 318.5 c 128,-1,140
 208 317 208 317 211 313.5 c 128,-1,141
 214 310 214 310 216 308.5 c 128,-1,142
 218 307 218 307 221 301 c 128,-1,143
 224 295 224 295 224.5 293.5 c 128,-1,144
 225 292 225 292 228 284.5 c 128,-1,145
 231 277 231 277 231 276 c 0,146,147
 232 274 232 274 232 269 c 128,-1,148
 232 264 232 264 228.5 253.5 c 128,-1,149
 225 243 225 243 225 239 c 0,150,151
 225 233 225 233 229 229 c 0,152,153
 248 212 248 212 279 212 c 0,154,155
 293 212 293 212 302 216 c 0,0,1
EndSplineSet
EndChar

StartChar: uni05E7
Encoding: 1511 1511 18
Width: 1000
GlyphClass: 2
Flags: W
LayerCount: 2
Fore
SplineSet
510 414 m 0,0,1
 516 418 516 418 527 425.5 c 128,-1,2
 538 433 538 433 543 436 c 128,-1,3
 548 439 548 439 557.5 445 c 128,-1,4
 567 451 567 451 573 454 c 128,-1,5
 579 457 579 457 588 461 c 128,-1,6
 597 465 597 465 606.5 467.5 c 128,-1,7
 616 470 616 470 626 472 c 0,8,9
 662 479 662 479 695 479 c 0,10,11
 731 479 731 479 788 468 c 0,12,13
 840 458 840 458 856 428 c 0,14,15
 869 403 869 403 869 380 c 0,16,17
 869 363 869 363 860 332 c 0,18,19
 847 290 847 290 798 240 c 0,20,21
 785 226 785 226 772.5 217 c 128,-1,22
 760 208 760 208 740 197 c 128,-1,23
 720 186 720 186 710 180 c 0,24,25
 642 139 642 139 602 120 c 0,26,27
 596 118 596 118 594 118 c 0,28,29
 591 118 591 118 586.5 118.5 c 128,-1,30
 582 119 582 119 580 119 c 0,31,32
 572 119 572 119 570 114 c 0,33,34
 568 110 568 110 568 101 c 0,35,36
 568 95 568 95 572 81.5 c 128,-1,37
 576 68 576 68 576 61 c 0,38,39
 576 58 576 58 574 50 c 0,40,41
 562 6 562 6 528 -30 c 0,42,43
 498 -61 498 -61 466 -66 c 1,44,-1
 462 -66 l 2,45,46
 442 -66 442 -66 434 -44 c 0,47,48
 433 -42 433 -42 433 -39 c 0,49,50
 433 -34 433 -34 439 -25 c 128,-1,51
 445 -16 445 -16 446 -10 c 0,52,53
 453 32 453 32 453 52 c 0,54,55
 453 66 453 66 452 74 c 0,56,57
 448 128 448 128 429 168 c 0,58,59
 426 174 426 174 418 192.5 c 128,-1,60
 410 211 410 211 406.5 217 c 128,-1,61
 403 223 403 223 395.5 235.5 c 128,-1,62
 388 248 388 248 379.5 256.5 c 128,-1,63
 371 265 371 265 360 274 c 0,64,65
 329 297 329 297 287 297 c 0,66,67
 284 297 284 297 278 296.5 c 128,-1,68
 272 296 272 296 268 296 c 0,69,70
 253 295 253 295 240.5 290.5 c 128,-1,71
 228 286 228 286 212 277 c 128,-1,72
 196 268 196 268 186 264 c 0,73,74
 179 261 179 261 162.5 248.5 c 128,-1,75
 146 236 146 236 134 236 c 2,76,-1
 128 236 l 2,77,78
 113 239 113 239 113 258 c 0,79,80
 113 268 113 268 118 276 c 0,81,82
 125 288 125 288 134 295.5 c 128,-1,83
 143 303 143 303 156.5 311.5 c 128,-1,84
 170 320 170 320 178 326 c 0,85,86
 193 338 193 338 213.5 355.5 c 128,-1,87
 234 373 234 373 250.5 386.5 c 128,-1,88
 267 400 267 400 288 412 c 0,89,90
 292 414 292 414 302.5 421 c 128,-1,91
 313 428 313 428 317 430 c 128,-1,92
 321 432 321 432 329.5 436 c 128,-1,93
 338 440 338 440 345 441.5 c 128,-1,94
 352 443 352 443 360 443 c 128,-1,95
 368 443 368 443 372 442 c 0,96,97
 389 439 389 439 389 416 c 0,98,99
 389 406 389 406 386 398 c 128,-1,100
 383 390 383 390 369.5 388 c 128,-1,101
 356 386 356 386 352 382 c 0,102,103
 331 366 331 366 331 359 c 0,104,105
 331 356 331 356 334 354 c 0,106,107
 347 346 347 346 362 346 c 0,108,109
 367 346 367 346 378.5 347.5 c 128,-1,110
 390 349 390 349 396 349 c 0,111,112
 398 349 398 349 401 348.5 c 128,-1,113
 404 348 404 348 406 348 c 0,114,115
 419 347 419 347 438 344 c 128,-1,116
 457 341 457 341 464 340 c 2,117,-1
 473 340 l 1,118,-1
 489 340 l 2,119,120
 502 340 502 340 512 334 c 0,121,122
 518 330 518 330 521.5 325 c 128,-1,123
 525 320 525 320 528 309.5 c 128,-1,124
 531 299 531 299 532 296 c 0,125,126
 544 264 544 264 556 218 c 0,127,128
 557 214 557 214 555.5 206.5 c 128,-1,129
 554 199 554 199 554.5 194 c 128,-1,130
 555 189 555 189 560 188 c 0,131,132
 572 184 572 184 585 184 c 0,133,134
 599 184 599 184 645 198 c 0,135,136
 651 200 651 200 656 202 c 128,-1,137
 661 204 661 204 666 207.5 c 128,-1,138
 671 211 671 211 673.5 213 c 128,-1,139
 676 215 676 215 683 220.5 c 128,-1,140
 690 226 690 226 692 228 c 0,141,142
 700 234 700 234 711.5 240.5 c 128,-1,143
 723 247 723 247 730 253.5 c 128,-1,144
 737 260 737 260 743 272 c 0,145,146
 751 291 751 291 751 307 c 0,147,148
 751 324 751 324 744 338 c 0,149,150
 730 371 730 371 702 386 c 0,151,152
 688 393 688 393 669 393 c 2,153,-1
 662 393 l 2,154,155
 650 393 650 393 644 394 c 0,156,157
 639 395 639 395 628 398 c 128,-1,158
 617 401 617 401 610 401 c 0,159,160
 605 401 605 401 602 400 c 0,161,162
 594 399 594 399 588 396 c 128,-1,163
 582 393 582 393 575 388 c 128,-1,164
 568 383 568 383 562 380 c 0,165,166
 559 378 559 378 550 372 c 128,-1,167
 541 366 541 366 534 364 c 0,168,169
 518 359 518 359 510 364 c 0,170,171
 498 372 498 372 498 388 c 0,172,173
 498 406 498 406 510 414 c 0,0,1
EndSplineSet
EndChar

StartChar: uni05E8
Encoding: 1512 1512 19
Width: 1000
GlyphClass: 2
Flags: W
LayerCount: 2
Fore
SplineSet
456 360 m 0,0,1
 453 360 453 360 447 359.5 c 128,-1,2
 441 359 441 359 439 359 c 2,3,-1
 429 359 l 2,4,5
 404 359 404 359 388 352 c 0,6,7
 359 338 359 338 359 325 c 0,8,9
 359 321 359 321 362 318 c 0,10,11
 370 308 370 308 379 305 c 128,-1,12
 388 302 388 302 405.5 301.5 c 128,-1,13
 423 301 423 301 430 300 c 0,14,15
 467 295 467 295 468 295 c 0,16,17
 481 295 481 295 492 300 c 0,18,19
 519 312 519 312 519 330 c 0,20,21
 519 331 519 331 518.5 333 c 128,-1,22
 518 335 518 335 518 336 c 0,23,24
 516 344 516 344 511 348 c 128,-1,25
 506 352 506 352 494 355 c 128,-1,26
 482 358 482 358 478 360 c 0,27,28
 473 362 473 362 456 360 c 0,0,1
164 254 m 0,29,30
 274 336 274 336 408 412 c 0,31,32
 428 424 428 424 459.5 448.5 c 128,-1,33
 491 473 491 473 515.5 485.5 c 128,-1,34
 540 498 540 498 568 498 c 0,35,36
 574 498 574 498 588 496 c 0,37,38
 610 492 610 492 618 475.5 c 128,-1,39
 626 459 626 459 628 423.5 c 128,-1,40
 630 388 630 388 632 376 c 0,41,42
 634 362 634 362 634 356 c 0,43,44
 634 346 634 346 631.5 328 c 128,-1,45
 629 310 629 310 629 300 c 128,-1,46
 629 290 629 290 630 284 c 0,47,48
 634 259 634 259 646 222.5 c 128,-1,49
 658 186 658 186 662 164 c 0,50,51
 664 152 664 152 668 133 c 128,-1,52
 672 114 672 114 674 100.5 c 128,-1,53
 676 87 676 87 676 73 c 0,54,55
 676 55 676 55 674 44 c 0,56,57
 668 6 668 6 632 -30 c 0,58,59
 615 -47 615 -47 599 -47 c 0,60,61
 594 -47 594 -47 586 -44 c 0,62,63
 555 -29 555 -29 542 16 c 0,64,65
 538 32 538 32 538 48 c 0,66,67
 538 56 538 56 539 71.5 c 128,-1,68
 540 87 540 87 540 96 c 0,69,70
 540 113 540 113 538 122 c 0,71,72
 537 129 537 129 533.5 149.5 c 128,-1,73
 530 170 530 170 528 178 c 128,-1,74
 526 186 526 186 518.5 198.5 c 128,-1,75
 511 211 511 211 500 220 c 0,76,77
 489 228 489 228 477 228 c 0,78,79
 468 228 468 228 448.5 222.5 c 128,-1,80
 429 217 429 217 418 216 c 0,81,82
 367 213 367 213 268 204 c 0,83,84
 255 203 255 203 232 198.5 c 128,-1,85
 209 194 209 194 196 194 c 0,86,87
 182 194 182 194 174 196 c 0,88,89
 160 198 160 198 156 224 c 0,90,91
 152 246 152 246 164 254 c 0,29,30
EndSplineSet
EndChar

StartChar: uni05E9
Encoding: 1513 1513 20
Width: 1000
GlyphClass: 2
Flags: W
LayerCount: 2
Fore
SplineSet
625 52 m 0,0,1
 654 107 654 107 695 159 c 0,2,3
 749 228 749 228 800 271 c 0,4,5
 865 324 865 324 926 352 c 0,6,7
 934 355 934 355 951 340 c 0,8,9
 953 338 953 338 957.5 334.5 c 128,-1,10
 962 331 962 331 964 329 c 128,-1,11
 966 327 966 327 968 324 c 128,-1,12
 970 321 970 321 970 317 c 2,13,-1
 970 313 l 2,14,15
 968 302 968 302 962 293 c 128,-1,16
 956 284 956 284 951.5 279.5 c 128,-1,17
 947 275 947 275 935 264 c 0,18,19
 923 254 923 254 911.5 246.5 c 128,-1,20
 900 239 900 239 885 231 c 128,-1,21
 870 223 870 223 859 216 c 0,22,23
 854 213 854 213 831 201.5 c 128,-1,24
 808 190 808 190 796 178 c 0,25,26
 783 165 783 165 774 153 c 128,-1,27
 765 141 765 141 752 120 c 128,-1,28
 739 99 739 99 734 91 c 128,-1,29
 729 83 729 83 720.5 61.5 c 128,-1,30
 712 40 712 40 700 30 c 0,31,32
 693 24 693 24 684 20 c 128,-1,33
 675 16 675 16 670 15 c 128,-1,34
 665 14 665 14 652 12 c 128,-1,35
 639 10 639 10 634 9 c 0,36,37
 620 7 620 7 619 15 c 0,38,39
 618 19 618 19 618 27 c 0,40,41
 618 39 618 39 625 52 c 0,0,1
106 30 m 0,42,43
 113 43 113 43 136 58.5 c 128,-1,44
 159 74 159 74 164 90 c 0,45,46
 166 98 166 98 166 101 c 0,47,48
 166 112 166 112 156 129.5 c 128,-1,49
 146 147 146 147 144 154 c 0,50,51
 142 159 142 159 134.5 169.5 c 128,-1,52
 127 180 127 180 127 185 c 0,53,54
 127 189 127 189 130 192 c 0,55,56
 154 223 154 223 178 240.5 c 128,-1,57
 202 258 202 258 242 276 c 0,58,59
 248 279 248 279 255 279 c 0,60,61
 276 279 276 279 282 262 c 0,62,63
 285 253 285 253 285 245 c 0,64,65
 285 238 285 238 280.5 221.5 c 128,-1,66
 276 205 276 205 276 194 c 0,67,68
 276 186 276 186 274 173 c 128,-1,69
 272 160 272 160 272 154 c 0,70,71
 272 138 272 138 284 126 c 0,72,73
 292 118 292 118 304 118 c 0,74,75
 307 118 307 118 342 128 c 0,76,77
 353 131 353 131 365.5 142.5 c 128,-1,78
 378 154 378 154 386 158 c 128,-1,79
 394 162 394 162 408.5 164.5 c 128,-1,80
 423 167 423 167 432 172 c 0,81,82
 446 181 446 181 471 206 c 128,-1,83
 496 231 496 231 518 240 c 0,84,85
 519 241 519 241 522 241 c 0,86,87
 528 241 528 241 552 226 c 0,88,89
 553 225 553 225 556.5 222.5 c 128,-1,90
 560 220 560 220 562 219 c 128,-1,91
 564 218 564 218 566.5 216 c 128,-1,92
 569 214 569 214 570 212 c 128,-1,93
 571 210 571 210 572 207 c 128,-1,94
 573 204 573 204 573 201 c 2,95,-1
 573 199 l 2,96,97
 573 192 573 192 562.5 183.5 c 128,-1,98
 552 175 552 175 551 167 c 2,99,-1
 551 166 l 2,100,101
 551 160 551 160 558.5 151.5 c 128,-1,102
 566 143 566 143 567 137 c 0,103,104
 569 130 569 130 569 118 c 0,105,106
 569 112 569 112 567 92 c 0,107,108
 566 88 566 88 561.5 82 c 128,-1,109
 557 76 557 76 555 73 c 128,-1,110
 553 70 553 70 557 65 c 0,111,112
 561 61 561 61 567 61 c 0,113,114
 571 61 571 61 579 63 c 128,-1,115
 587 65 587 65 591 65 c 0,116,117
 596 65 596 65 601 62 c 0,118,119
 613 54 613 54 603 32 c 0,120,121
 593 7 593 7 575 0 c 0,122,123
 566 -3 566 -3 558 -3 c 0,124,125
 553 -3 553 -3 542 -1.5 c 128,-1,126
 531 0 531 0 524 0 c 0,127,128
 518 0 518 0 509.5 -1.5 c 128,-1,129
 501 -3 501 -3 497 -3 c 0,130,131
 492 -3 492 -3 484 0 c 0,132,133
 477 3 477 3 468 15.5 c 128,-1,134
 459 28 459 28 450 28 c 2,135,-1
 449 28 l 2,136,137
 434 27 434 27 414 9.5 c 128,-1,138
 394 -8 394 -8 379 -8 c 2,139,-1
 377 -8 l 2,140,141
 362 -7 362 -7 344.5 14.5 c 128,-1,142
 327 36 327 36 314 36 c 2,143,-1
 312 36 l 2,144,145
 310 35 310 35 309 35 c 0,146,147
 280 29 280 29 245.5 -4.5 c 128,-1,148
 211 -38 211 -38 184 -45 c 0,149,150
 176 -47 176 -47 171 -47 c 0,151,152
 147 -47 147 -47 111 -13 c 0,153,154
 101 -3 101 -3 101 11 c 0,155,156
 101 20 101 20 106 30 c 0,42,43
EndSplineSet
EndChar

StartChar: uni05EA
Encoding: 1514 1514 21
Width: 1000
GlyphClass: 2
Flags: W
LayerCount: 2
Fore
SplineSet
72 32 m 0,0,1
 90 46 90 46 108 55 c 128,-1,2
 126 64 126 64 150.5 72.5 c 128,-1,3
 175 81 175 81 190 88 c 128,-1,4
 205 95 205 95 261 119.5 c 128,-1,5
 317 144 317 144 354 162 c 0,6,7
 368 169 368 169 395.5 174 c 128,-1,8
 423 179 423 179 439 187.5 c 128,-1,9
 455 196 455 196 460 216 c 0,10,11
 461 219 461 219 461 225 c 0,12,13
 461 243 461 243 428.5 263.5 c 128,-1,14
 396 284 396 284 388 294 c 0,15,16
 385 298 385 298 377 305.5 c 128,-1,17
 369 313 369 313 365 319 c 128,-1,18
 361 325 361 325 361 331 c 0,19,20
 361 336 361 336 364 340 c 0,21,22
 371 351 371 351 381 356 c 128,-1,23
 391 361 391 361 407 363.5 c 128,-1,24
 423 366 423 366 432 370 c 0,25,26
 440 373 440 373 458 385.5 c 128,-1,27
 476 398 476 398 487 398 c 0,28,29
 490 398 490 398 498 396 c 0,30,31
 525 388 525 388 557 357 c 128,-1,32
 589 326 589 326 614 318 c 0,33,34
 625 314 625 314 636 314 c 0,35,36
 654 314 654 314 688 332 c 0,37,38
 723 351 723 351 776 390 c 128,-1,39
 829 429 829 429 872 449 c 0,40,41
 892 458 892 458 907 458 c 0,42,43
 927 458 927 458 934 444 c 128,-1,44
 941 430 941 430 941 420 c 0,45,46
 941 399 941 399 918 381 c 0,47,48
 904 369 904 369 882 369 c 0,49,50
 879 369 879 369 873.5 369.5 c 128,-1,51
 868 370 868 370 865 370 c 0,52,53
 850 370 850 370 838 366 c 0,54,55
 822 361 822 361 807 353.5 c 128,-1,56
 792 346 792 346 784 341 c 128,-1,57
 776 336 776 336 758.5 324.5 c 128,-1,58
 741 313 741 313 732 308 c 0,59,60
 709 294 709 294 698 278 c 0,61,62
 695 273 695 273 686.5 260.5 c 128,-1,63
 678 248 678 248 674.5 242.5 c 128,-1,64
 671 237 671 237 667.5 226 c 128,-1,65
 664 215 664 215 664 204 c 2,66,-1
 664 202 l 2,67,68
 664 182 664 182 679 154 c 128,-1,69
 694 126 694 126 694 106 c 2,70,-1
 694 104 l 2,71,72
 694 101 694 101 694 87.5 c 128,-1,73
 694 74 694 74 693.5 70 c 128,-1,74
 693 66 693 66 692 55 c 128,-1,75
 691 44 691 44 688.5 39.5 c 128,-1,76
 686 35 686 35 682.5 27.5 c 128,-1,77
 679 20 679 20 673.5 16 c 128,-1,78
 668 12 668 12 660 10 c 0,79,80
 645 5 645 5 631 5 c 0,81,82
 622 5 622 5 613.5 8 c 128,-1,83
 605 11 605 11 599.5 14.5 c 128,-1,84
 594 18 594 18 581.5 27 c 128,-1,85
 569 36 569 36 562 41 c 0,86,87
 556 45 556 45 551.5 53.5 c 128,-1,88
 547 62 547 62 541.5 77.5 c 128,-1,89
 536 93 536 93 536 94 c 0,90,91
 535 98 535 98 531 107.5 c 128,-1,92
 527 117 527 117 525 121 c 128,-1,93
 523 125 523 125 519.5 131.5 c 128,-1,94
 516 138 516 138 511 142 c 128,-1,95
 506 146 506 146 500 150 c 0,96,97
 483 159 483 159 469 159 c 0,98,99
 457 159 457 159 438 152 c 0,100,101
 416 144 416 144 398 133 c 128,-1,102
 380 122 380 122 359 107 c 128,-1,103
 338 92 338 92 322 82 c 0,104,105
 307 73 307 73 286.5 59.5 c 128,-1,106
 266 46 266 46 249 36 c 128,-1,107
 232 26 232 26 212 16 c 0,108,109
 183 2 183 2 122 -10 c 0,110,111
 119 -11 119 -11 104.5 -15 c 128,-1,112
 90 -19 90 -19 83 -19 c 0,113,114
 73 -19 73 -19 66 -12 c 128,-1,115
 59 -5 59 -5 59 5 c 0,116,117
 59 21 59 21 72 32 c 0,0,1
EndSplineSet
EndChar
